{
  "accessors": [
    {
      "bufferView": 2,
      "componentType": 5126,
      "count": 1794,
      "max": [
        38.577762603759766,
        -22.64080810546875,
        201.98690795898438
      ],
      "min": [
        -5.7032952308654785,
        -57.87568664550781,
        174.33392333984375
      ],
      "type": "VEC3"
    },
    {
      "bufferView": 2,
      "byteOffset": 21528,
      "componentType": 5126,
      "count": 1794,
      "max": [
        0.9730826616287231,
        0.975642740726471,
        0.9993792176246643
      ],
      "min": [
        -0.9973958730697632,
        -0.9975871443748474,
        -0.7512032985687256
      ],
      "type": "VEC3"
    },
    {
      "bufferView": 1,
      "componentType": 5126,
      "count": 1794,
      "max": [
        0.9079549908638,
        0.7792879939079285
      ],
      "min": [
        0.009999999776482582,
        0.08932799845933914
      ],
      "type": "VEC2"
    },
    {
      "bufferView": 0,
      "componentType": 5125,
      "count": 9936,
      "type": "SCALAR"
    },
    {
      "bufferView": 2,
      "byteOffset": 43056,
      "componentType": 5126,
      "count": 53366,
      "max": [
        75.77103424072266,
        33.949241638183594,
        198.42816162109375
      ],
      "min": [
        -96.7817153930664,
        -71.29552459716797,
        -0.7948909997940063
      ],
      "type": "VEC3"
    },
    {
      "bufferView": 2,
      "byteOffset": 683448,
      "componentType": 5126,
      "count": 53366,
      "max": [
        0.999904990196228,
        0.999983012676239,
        1.0
      ],
      "min": [
        -0.9999216198921204,
        -0.999983012676239,
        -1.0
      ],
      "type": "VEC3"
    },
    {
      "bufferView": 3,
      "componentType": 5126,
      "count": 53366,
      "max": [
        0.9999873638153076,
        0.9999279379844666,
        1.0,
        1.0
      ],
      "min": [
        -0.9998049736022949,
        -0.9999271035194397,
        -1.0,
        -1.0
      ],
      "type": "VEC4"
    },
    {
      "bufferView": 1,
      "byteOffset": 14352,
      "componentType": 5126,
      "count": 53366,
      "max": [
        0.9900000095367432,
        0.9900000095367432
      ],
      "min": [
        0.009999999776482582,
        0.01054100040346384
      ],
      "type": "VEC2"
    },
    {
      "bufferView": 0,
      "byteOffset": 39744,
      "componentType": 5125,
      "count": 267348,
      "type": "SCALAR"
    }
  ],
  "asset": {
    "extras": {
      "author": "3d-coat (https://sketchfab.com/3d-coat)",
      "license": "CC-BY-4.0 (http://creativecommons.org/licenses/by/4.0/)",
      "source": "https://sketchfab.com/3d-models/robot-steampunk-3d-coat-45-pbr-91eb0eb061024bf1bc5e3eb5ffe385d8",
      "title": "Robot Steampunk 3D-Coat 4.5 PBR"
    },
    "generator": "Sketchfab-12.67.0",
    "version": "2.0"
  },
  "bufferViews": [
    {
      "buffer": 0,
      "byteLength": 1109136,
      "name": "floatBufferViews",
      "target": 34963
    },
    {
      "buffer": 0,
      "byteLength": 441280,
      "byteOffset": 1109136,
      "byteStride": 8,
      "name": "floatBufferViews",
      "target": 34962
    },
    {
      "buffer": 0,
      "byteLength": 1323840,
      "byteOffset": 1550416,
      "byteStride": 12,
      "name": "floatBufferViews",
      "target": 34962
    },
    {
      "buffer": 0,
      "byteLength": 853856,
      "byteOffset": 2874256,
      "byteStride": 16,
      "name": "floatBufferViews",
      "target": 34962
    }
  ],
  "buffers": [
    {
      "byteLength": 3728112,
      "uri": "scene.bin"
    }
  ],
  "images": [
    {
      "uri": "textures/main_mat_baseColor.png"
    },
    {
      "uri": "textures/main_mat_metallicRoughness.png"
    },
    {
      "uri": "textures/main_mat_normal.png"
    }
  ],
  "materials": [
    {
      "alphaMode": "BLEND",
      "doubleSided": true,
      "name": "glass",
      "pbrMetallicRoughness": {
        "baseColorFactor": [
          0.1749924603,
          0.3206165177,
          0.3206165177,
          0.46
        ],
        "roughnessFactor": 0.0
      }
    },
    {
      "doubleSided": true,
      "name": "main_mat",
      "normalTexture": {
        "index": 2
      },
      "occlusionTexture": {
        "index": 1
      },
      "pbrMetallicRoughness": {
        "baseColorTexture": {
          "index": 0
        },
        "metallicRoughnessTexture": {
          "index": 1
        }
      }
    }
  ],
  "meshes": [
    {
      "name": "Object_0",
      "primitives": [
        {
          "attributes": {
            "NORMAL": 1,
            "POSITION": 0,
            "TEXCOORD_0": 2
          },
          "indices": 3,
          "material": 0,
          "mode": 4
        }
      ]
    },
    {
      "name": "Object_1",
      "primitives": [
        {
          "attributes": {
            "NORMAL": 5,
            "POSITION": 4,
            "TANGENT": 6,
            "TEXCOORD_0": 7
          },
          "indices": 8,
          "material": 1,
          "mode": 4
        }
      ]
    }
  ],
  "nodes": [
    {
      "children": [
        1
      ],
      "matrix": [
        1.0,
        0.0,
        0.0,
        0.0,
        0.0,
        2.220446049250313e-16,
        -1.0,
        0.0,
        0.0,
        1.0,
        2.220446049250313e-16,
        0.0,
        0.0,
        0.0,
        0.0,
        1.0
      ],
      "name": "Sketchfab_model"
    },
    {
      "children": [
        2,
        3
      ],
      "name": "585a765e1ea54ef0a0ecc7196cd1b814.obj.cleaner"
    },
    {
      "mesh": 0,
      "name": "Object_2"
    },
    {
      "mesh": 1,
      "name": "Object_3"
    }
  ],
  "samplers": [
    {
      "magFilter": 9729,
      "minFilter": 9987,
      "wrapS": 10497,
      "wrapT": 10497
    }
  ],
  "scene": 0,
  "scenes": [
    {
      "name": "Sketchfab_Scene",
      "nodes": [
        0
      ]
    }
  ],
  "textures": [
    {
      "sampler": 0,
      "source": 0
    },
    {
      "sampler": 0,
      "source": 1
    },
    {
      "sampler": 0,
      "source": 2
    }
  ]
}
