{
	"asset":{
		"generator":"Khronos glTF Blender I/O v3.5.30",
		"version":"2.0"
	},
	"scene":0,
	"scenes":[
		{
			"name":"Scene",
			"nodes":[
				3
			]
		}
	],
	"nodes":[
		{
			"mesh":0,
			"name":"Object_2"
		},
		{
			"mesh":1,
			"name":"Object_3"
		},
		{
			"children":[
				0,
				1
			],
			"name":"585a765e1ea54ef0a0ecc7196cd1b814.obj.cleaner"
		},
		{
			"children":[
				2
			],
			"name":"Sketchfab_model",
			"rotation":[
				-0.70710688829422,
				0,
				0,
				0.7071066498756409
			],
			"scale":[
				0.009999999776482582,
				0.010000000707805157,
				0.010000000707805157
			]
		}
	],
	"materials":[
		{
			"alphaMode":"BLEND",
			"doubleSided":true,
			"name":"glass",
			"pbrMetallicRoughness":{
				"baseColorFactor":[
					0.17499245703220367,
					0.3206165134906769,
					0.3206165134906769,
					0.46000000834465027
				],
				"roughnessFactor":0
			}
		},
		{
			"doubleSided":true,
			"name":"main_mat",
			"normalTexture":{
				"index":0
			},
			"occlusionTexture":{
				"index":1
			},
			"pbrMetallicRoughness":{
				"baseColorTexture":{
					"index":2
				},
				"metallicRoughnessTexture":{
					"index":1
				}
			}
		}
	],
	"meshes":[
		{
			"name":"Object_0",
			"primitives":[
				{
					"attributes":{
						"POSITION":0,
						"TEXCOORD_0":1,
						"NORMAL":2
					},
					"indices":3,
					"material":0
				}
			]
		},
		{
			"name":"Object_1",
			"primitives":[
				{
					"attributes":{
						"POSITION":4,
						"TEXCOORD_0":5,
						"NORMAL":6
					},
					"indices":7,
					"material":1
				}
			]
		}
	],
	"textures":[
		{
			"sampler":0,
			"source":0
		},
		{
			"sampler":0,
			"source":1
		},
		{
			"sampler":0,
			"source":2
		}
	],
	"images":[
		{
			"mimeType":"image/png",
			"name":"main_mat_normal",
			"uri":"main_mat_normal.png"
		},
		{
			"mimeType":"image/png",
			"name":"main_mat_metallicRoughness",
			"uri":"main_mat_metallicRoughness.png"
		},
		{
			"mimeType":"image/png",
			"name":"main_mat_baseColor",
			"uri":"main_mat_baseColor.png"
		}
	],
	"accessors":[
		{
			"bufferView":0,
			"componentType":5126,
			"count":1794,
			"max":[
				38.577762603759766,
				-22.64080810546875,
				201.98690795898438
			],
			"min":[
				-5.7032952308654785,
				-57.87568664550781,
				174.33392333984375
			],
			"type":"VEC3"
		},
		{
			"bufferView":1,
			"componentType":5126,
			"count":1794,
			"type":"VEC2"
		},
		{
			"bufferView":2,
			"componentType":5126,
			"count":1794,
			"type":"VEC3"
		},
		{
			"bufferView":3,
			"componentType":5123,
			"count":9936,
			"type":"SCALAR"
		},
		{
			"bufferView":4,
			"componentType":5126,
			"count":56120,
			"max":[
				75.77103424072266,
				33.949241638183594,
				198.42816162109375
			],
			"min":[
				-96.7817153930664,
				-71.29552459716797,
				-0.7948909997940063
			],
			"type":"VEC3"
		},
		{
			"bufferView":5,
			"componentType":5126,
			"count":56120,
			"type":"VEC2"
		},
		{
			"bufferView":6,
			"componentType":5126,
			"count":56120,
			"type":"VEC3"
		},
		{
			"bufferView":7,
			"componentType":5123,
			"count":267348,
			"type":"SCALAR"
		}
	],
	"bufferViews":[
		{
			"buffer":0,
			"byteLength":21528,
			"byteOffset":0,
			"target":34962
		},
		{
			"buffer":0,
			"byteLength":14352,
			"byteOffset":21528,
			"target":34962
		},
		{
			"buffer":0,
			"byteLength":21528,
			"byteOffset":35880,
			"target":34962
		},
		{
			"buffer":0,
			"byteLength":19872,
			"byteOffset":57408,
			"target":34963
		},
		{
			"buffer":0,
			"byteLength":673440,
			"byteOffset":77280,
			"target":34962
		},
		{
			"buffer":0,
			"byteLength":448960,
			"byteOffset":750720,
			"target":34962
		},
		{
			"buffer":0,
			"byteLength":673440,
			"byteOffset":1199680,
			"target":34962
		},
		{
			"buffer":0,
			"byteLength":534696,
			"byteOffset":1873120,
			"target":34963
		}
	],
	"samplers":[
		{
			"magFilter":9729,
			"minFilter":9987
		}
	],
	"buffers":[
		{
			"byteLength":2407816,
			"uri":"scene.bin"
		}
	]
}
