<?xml version="1.0" standalone="no"?>
<!DOCTYPE svg PUBLIC "-//W3C//DTD SVG 20010904//EN"
        "http://www.w3.org/TR/2001/REC-SVG-20010904/DTD/svg10.dtd">
<svg version="1.0" xmlns="http://www.w3.org/2000/svg"
     width="412.000000pt" height="412.000000pt" viewBox="0 0 412.000000 412.000000"
     preserveAspectRatio="xMidYMid meet">
    <metadata>
        Created by potrace 1.14, written by Peter Selinger 2001-2017
    </metadata>
    <g transform="translate(0.000000,412.000000) scale(0.100000,-0.100000)"
       fill="#000000" stroke="none">
        <path d="M2368 4035 c-2 -1 -31 -6 -66 -9 -177 -18 -463 -150 -687 -316 -127
-94 -203 -174 -273 -287 -57 -92 -211 -302 -270 -368 -108 -120 -158 -209
-167 -295 -3 -30 -8 -66 -10 -80 -2 -14 -7 -60 -10 -104 -6 -95 -14 -126 -29
-126 -6 0 -43 8 -81 19 -115 31 -132 32 -154 13 -27 -22 -27 -46 0 -170 31
-142 37 -138 -164 -132 -73 3 -107 -14 -107 -52 0 -17 27 -89 70 -183 17 -36
15 -57 -5 -83 -1 -1 -50 -11 -109 -21 -59 -11 -114 -25 -122 -32 -29 -24 -16
-69 46 -160 l61 -88 -43 -22 c-48 -24 -157 -130 -174 -169 -6 -14 -18 -38 -25
-54 -9 -19 -14 -64 -14 -125 0 -87 3 -102 32 -163 34 -72 46 -89 162 -238 157
-201 362 -419 423 -450 31 -17 37 -17 42 -4 17 44 -26 238 -111 494 -13 41
-31 95 -38 120 l-14 45 22 -30 c95 -129 301 -340 320 -328 5 3 7 31 4 62 -6
61 -9 73 -27 140 -6 23 -9 46 -6 49 3 3 6 -1 6 -9 0 -18 59 -105 96 -143 44
-43 123 -99 176 -124 48 -22 48 -23 49 -72 1 -28 2 -53 3 -57 31 -118 75 -184
176 -265 111 -88 283 -130 424 -104 20 4 36 10 36 13 0 3 -17 25 -37 47 -71
79 -88 101 -141 179 l-52 78 88 -6 c48 -4 103 -8 122 -10 19 -2 92 -6 161 -9
137 -6 136 -7 133 49 -7 130 -87 257 -212 336 l-42 27 212 0 c117 0 256 3 308
5 63 4 87 3 72 -3 -13 -6 -42 -23 -65 -39 -117 -81 -195 -207 -201 -326 l-4
-67 132 6 c164 8 246 14 313 25 29 4 53 6 53 4 0 -19 -133 -193 -199 -260 -39
-39 -31 -45 58 -49 129 -5 262 40 367 123 97 78 169 224 160 324 l-4 48 65 42
c86 56 164 146 213 244 31 63 46 83 70 92 16 6 30 8 30 5 0 -4 -13 -47 -29
-97 -35 -108 -48 -156 -55 -212 -11 -84 21 -68 179 93 l111 112 -23 -129 c-12
-71 -25 -151 -28 -177 -3 -26 -7 -58 -10 -72 -8 -37 -8 -178 0 -190 10 -16 20
-12 59 28 87 86 302 419 419 647 54 105 72 241 43 324 -13 40 -13 47 5 89 24
55 33 172 17 222 -27 85 -128 184 -217 212 -39 12 -55 38 -33 52 12 7 50 140
57 201 3 28 8 59 10 70 3 11 7 43 10 70 4 28 8 66 10 85 3 19 6 121 9 225 6
286 -21 452 -106 630 -51 110 -143 215 -245 282 -92 60 -94 61 -168 95 -69 32
-160 78 -305 155 -89 47 -228 121 -360 190 -52 28 -115 62 -140 77 -61 35
-123 55 -192 60 -31 2 -58 3 -60 1z m1216 -1549 c38 -73 86 -202 93 -251 2
-16 6 -35 8 -42 4 -12 -99 -22 -158 -15 l-29 3 6 72 c3 40 9 91 12 115 7 48
12 106 13 167 1 47 7 42 55 -49z m-544 -1611 c-18 -19 -53 -44 -77 -55 l-44
-21 -65 32 c-35 18 -63 33 -62 34 2 2 30 6 63 9 33 4 92 13 130 21 39 7 74 13
79 14 6 0 -5 -15 -24 -34z m-1841 1 c60 -8 145 -20 156 -21 6 -1 17 -3 25 -4
8 -1 -9 -13 -37 -27 -29 -15 -53 -30 -53 -35 0 -5 -11 -4 -25 1 -14 5 -25 7
-25 4 0 -8 -89 44 -122 71 -33 27 -27 36 14 24 17 -5 47 -11 67 -13z"/>
    </g>
</svg>
